<?xml version="1.0" standalone="no"?>
<svg viewBox="0 0 1024 1024" version="1.1" xmlns="http://www.w3.org/2000/svg" xmlns:xlink="http://www.w3.org/1999/xlink" width="1024" height="1024">
  <!-- Black rounded-square base (reference art is transparent; the app wants a
       black icon). Glyph geometry is the reference m.svg unchanged; only the
       three blue tones are remapped to a green ramp anchored on #3CD742.
       Everything is wrapped in a group scaled to the central 824/1024 (~80.5%)
       so the icon carries the transparent margin the macOS Dock expects —
       without it the full-bleed square renders larger than neighbouring apps. -->
  <g transform="translate(100,100) scale(0.804688)">
  <rect width="1024" height="1024" rx="224" fill="#000000"></rect>
  <path d="M919.17 667.41v96.35c0 40.92-25.85 76.09-62.03 89.99-10.67 4.12-22.25 6.37-34.33 6.37-38.93 0-72.64-23.39-87.81-56.81a95.664 95.664 0 0 1-8.54-39.55V379.83c89.48 36.78 158.01 114.11 182.71 209.12 0.07 0.26 0.14 0.51 0.2 0.76 6.41 24.84 9.8 50.87 9.8 77.7z" fill="#1E8F2E"></path>
  <path d="M608.35 522.68v241.08c0 21.91-7.41 42.18-19.87 58.42-17.64 23.03-45.4 37.93-76.49 37.93-53 0-96.35-43.35-96.35-96.35V522.68c0-53 43.35-96.35 96.35-96.35 26.49 0 50.58 10.84 68.04 28.3 16.44 16.44 27 38.73 28.2 63.38v0.04c0.09 1.52 0.12 3.08 0.12 4.63z" fill="#31B23C"></path>
  <path d="M726.47 216.04c35.57 18.87 67.49 42.31 94.63 69.34-27.35-25.69-59.37-46.47-94.63-60.96-36.42-14.98-76.3-23.24-118.11-23.24-171 0-309.73 138.07-310.81 308.81-0.01 0.67-0.01 1.34-0.01 2.01v251.76c0 14.07-3.06 27.46-8.54 39.55-15.17 33.42-48.9 56.81-87.81 56.81-53 0-96.35-43.35-96.35-96.35V512c0-124.97 77.02-234.57 192.71-295.96 62.28-33.07 135.77-52.16 214.47-52.16s152.17 19.09 214.45 52.16z" fill="#3CD742"></path>
  <path d="M726.47 224.42c35.26 14.48 67.27 35.27 94.63 60.96 57.24 57.03 93.27 130.06 97.63 210.19 0.07 1.27 0.14 2.54 0.19 3.82 0.05 1.33 0.1 2.67 0.14 4.02 0.04 1.37 0.06 2.74 0.09 4.1 0.02 1.5 0.04 3 0.04 4.5v155.41c0-26.83-3.39-52.86-9.8-77.7-0.06-0.25-0.12-0.5-0.2-0.76-24.7-95.01-93.23-172.34-182.71-209.12-36.42-14.98-76.3-23.24-118.11-23.24H452.94c-85.16 0-154.32 68.49-155.4 153.4 1.08-170.74 139.81-308.81 310.81-308.81 41.82-0.01 81.7 8.25 118.12 23.23z" fill="#31B23C"></path>
  </g>
</svg>
